<mxfile host="app.diagrams.net" agent="Mozilla/5.0 (Macintosh; Intel Mac OS X 10_15_7) AppleWebKit/537.36 (KHTML, like Gecko) Chrome/131.0.0.0 Safari/537.36" version="25.0.3">
  <diagram name="Page-1" id="1A6FtAr5KDfJfpCunews">
    <mxGraphModel grid="1" page="1" gridSize="10" guides="1" tooltips="1" connect="1" arrows="1" fold="1" pageScale="1" pageWidth="850" pageHeight="1100" math="0" shadow="0">
      <root>
        <mxCell id="0" />
        <mxCell id="1" parent="0" />
        <mxCell id="FqJBwc_r8EiN9YZokY4C-2" value="" style="shape=table;startSize=0;container=1;collapsible=0;childLayout=tableLayout;spacing=2;fontSize=16;" vertex="1" parent="1">
          <mxGeometry x="-150" y="140" width="1310" height="40" as="geometry" />
        </mxCell>
        <mxCell id="FqJBwc_r8EiN9YZokY4C-3" value="" style="shape=tableRow;horizontal=0;startSize=0;swimlaneHead=0;swimlaneBody=0;strokeColor=inherit;top=0;left=0;bottom=0;right=0;collapsible=0;dropTarget=0;fillColor=none;points=[[0,0.5],[1,0.5]];portConstraint=eastwest;" vertex="1" parent="FqJBwc_r8EiN9YZokY4C-2">
          <mxGeometry width="1310" height="40" as="geometry" />
        </mxCell>
        <mxCell id="FqJBwc_r8EiN9YZokY4C-29" value="&lt;span style=&quot;color: rgb(0, 0, 0); font-family: Helvetica; font-size: 15px; font-style: normal; font-variant-ligatures: normal; font-variant-caps: normal; font-weight: 400; letter-spacing: normal; orphans: 2; text-align: center; text-indent: 0px; text-transform: none; widows: 2; word-spacing: 0px; -webkit-text-stroke-width: 0px; white-space: normal; background-color: rgb(251, 251, 251); text-decoration-thickness: initial; text-decoration-style: initial; text-decoration-color: initial; display: inline !important; float: none;&quot;&gt;&lt;u&gt;CID&lt;/u&gt;&lt;/span&gt;" style="shape=partialRectangle;html=1;whiteSpace=wrap;connectable=0;strokeColor=inherit;overflow=hidden;fillColor=none;top=0;left=0;bottom=0;right=0;pointerEvents=1;" vertex="1" parent="FqJBwc_r8EiN9YZokY4C-3">
          <mxGeometry width="70" height="40" as="geometry">
            <mxRectangle width="70" height="40" as="alternateBounds" />
          </mxGeometry>
        </mxCell>
        <mxCell id="FqJBwc_r8EiN9YZokY4C-4" value="&lt;font style=&quot;font-size: 14px;&quot;&gt;CFirstName&lt;/font&gt;" style="shape=partialRectangle;html=1;whiteSpace=wrap;connectable=0;strokeColor=inherit;overflow=hidden;fillColor=none;top=0;left=0;bottom=0;right=0;pointerEvents=1;" vertex="1" parent="FqJBwc_r8EiN9YZokY4C-3">
          <mxGeometry x="70" width="80" height="40" as="geometry">
            <mxRectangle width="80" height="40" as="alternateBounds" />
          </mxGeometry>
        </mxCell>
        <mxCell id="FqJBwc_r8EiN9YZokY4C-5" value="CLastName" style="shape=partialRectangle;html=1;whiteSpace=wrap;connectable=0;strokeColor=inherit;overflow=hidden;fillColor=none;top=0;left=0;bottom=0;right=0;pointerEvents=1;" vertex="1" parent="FqJBwc_r8EiN9YZokY4C-3">
          <mxGeometry x="150" width="74" height="40" as="geometry">
            <mxRectangle width="74" height="40" as="alternateBounds" />
          </mxGeometry>
        </mxCell>
        <mxCell id="FqJBwc_r8EiN9YZokY4C-6" value="&lt;font style=&quot;font-size: 15px;&quot;&gt;Email&lt;/font&gt;" style="shape=partialRectangle;html=1;whiteSpace=wrap;connectable=0;strokeColor=inherit;overflow=hidden;fillColor=none;top=0;left=0;bottom=0;right=0;pointerEvents=1;" vertex="1" parent="FqJBwc_r8EiN9YZokY4C-3">
          <mxGeometry x="224" width="75" height="40" as="geometry">
            <mxRectangle width="75" height="40" as="alternateBounds" />
          </mxGeometry>
        </mxCell>
        <mxCell id="FqJBwc_r8EiN9YZokY4C-7" value="&lt;font style=&quot;font-size: 15px;&quot;&gt;Phone&lt;/font&gt;" style="shape=partialRectangle;html=1;whiteSpace=wrap;connectable=0;strokeColor=inherit;overflow=hidden;fillColor=none;top=0;left=0;bottom=0;right=0;pointerEvents=1;" vertex="1" parent="FqJBwc_r8EiN9YZokY4C-3">
          <mxGeometry x="299" width="74" height="40" as="geometry">
            <mxRectangle width="74" height="40" as="alternateBounds" />
          </mxGeometry>
        </mxCell>
        <mxCell id="FqJBwc_r8EiN9YZokY4C-8" value="Email" style="shape=partialRectangle;html=1;whiteSpace=wrap;connectable=0;strokeColor=inherit;overflow=hidden;fillColor=none;top=0;left=0;bottom=0;right=0;pointerEvents=1;fontSize=17;" vertex="1" parent="FqJBwc_r8EiN9YZokY4C-3">
          <mxGeometry x="373" width="75" height="40" as="geometry">
            <mxRectangle width="75" height="40" as="alternateBounds" />
          </mxGeometry>
        </mxCell>
        <mxCell id="FqJBwc_r8EiN9YZokY4C-9" value="&lt;font style=&quot;font-size: 13px;&quot;&gt;DOB&lt;/font&gt;" style="shape=partialRectangle;html=1;whiteSpace=wrap;connectable=0;strokeColor=inherit;overflow=hidden;fillColor=none;top=0;left=0;bottom=0;right=0;pointerEvents=1;" vertex="1" parent="FqJBwc_r8EiN9YZokY4C-3">
          <mxGeometry x="448" width="75" height="40" as="geometry">
            <mxRectangle width="75" height="40" as="alternateBounds" />
          </mxGeometry>
        </mxCell>
        <mxCell id="FqJBwc_r8EiN9YZokY4C-10" value="&lt;font style=&quot;font-size: 14px;&quot;&gt;Age&lt;/font&gt;" style="shape=partialRectangle;html=1;whiteSpace=wrap;connectable=0;strokeColor=inherit;overflow=hidden;fillColor=none;top=0;left=0;bottom=0;right=0;pointerEvents=1;" vertex="1" parent="FqJBwc_r8EiN9YZokY4C-3">
          <mxGeometry x="523" width="67" height="40" as="geometry">
            <mxRectangle width="67" height="40" as="alternateBounds" />
          </mxGeometry>
        </mxCell>
        <mxCell id="FqJBwc_r8EiN9YZokY4C-11" value="Is_Student" style="shape=partialRectangle;html=1;whiteSpace=wrap;connectable=0;strokeColor=inherit;overflow=hidden;fillColor=none;top=0;left=0;bottom=0;right=0;pointerEvents=1;fontSize=15;" vertex="1" parent="FqJBwc_r8EiN9YZokY4C-3">
          <mxGeometry x="590" width="82" height="40" as="geometry">
            <mxRectangle width="82" height="40" as="alternateBounds" />
          </mxGeometry>
        </mxCell>
        <mxCell id="FqJBwc_r8EiN9YZokY4C-12" value="AgeGroup" style="shape=partialRectangle;html=1;whiteSpace=wrap;connectable=0;strokeColor=inherit;overflow=hidden;fillColor=none;top=0;left=0;bottom=0;right=0;pointerEvents=1;fontSize=13;" vertex="1" parent="FqJBwc_r8EiN9YZokY4C-3">
          <mxGeometry x="672" width="75" height="40" as="geometry">
            <mxRectangle width="75" height="40" as="alternateBounds" />
          </mxGeometry>
        </mxCell>
        <mxCell id="FqJBwc_r8EiN9YZokY4C-13" value="StreetAdd" style="shape=partialRectangle;html=1;whiteSpace=wrap;connectable=0;strokeColor=inherit;overflow=hidden;fillColor=none;top=0;left=0;bottom=0;right=0;pointerEvents=1;fontSize=13;" vertex="1" parent="FqJBwc_r8EiN9YZokY4C-3">
          <mxGeometry x="747" width="78" height="40" as="geometry">
            <mxRectangle width="78" height="40" as="alternateBounds" />
          </mxGeometry>
        </mxCell>
        <mxCell id="FqJBwc_r8EiN9YZokY4C-14" value="&lt;font style=&quot;font-size: 14px;&quot;&gt;City&lt;/font&gt;" style="shape=partialRectangle;html=1;whiteSpace=wrap;connectable=0;strokeColor=inherit;overflow=hidden;fillColor=none;top=0;left=0;bottom=0;right=0;pointerEvents=1;fontSize=13;" vertex="1" parent="FqJBwc_r8EiN9YZokY4C-3">
          <mxGeometry x="825" width="55" height="40" as="geometry">
            <mxRectangle width="55" height="40" as="alternateBounds" />
          </mxGeometry>
        </mxCell>
        <mxCell id="FqJBwc_r8EiN9YZokY4C-15" value="&lt;font style=&quot;font-size: 14px;&quot;&gt;ZipCode&lt;/font&gt;" style="shape=partialRectangle;html=1;whiteSpace=wrap;connectable=0;strokeColor=inherit;overflow=hidden;fillColor=none;top=0;left=0;bottom=0;right=0;pointerEvents=1;fontSize=13;" vertex="1" parent="FqJBwc_r8EiN9YZokY4C-3">
          <mxGeometry x="880" width="110" height="40" as="geometry">
            <mxRectangle width="110" height="40" as="alternateBounds" />
          </mxGeometry>
        </mxCell>
        <mxCell id="FqJBwc_r8EiN9YZokY4C-30" value="&lt;font style=&quot;font-size: 14px;&quot;&gt;cZone&lt;/font&gt;" style="shape=partialRectangle;html=1;whiteSpace=wrap;connectable=0;strokeColor=inherit;overflow=hidden;fillColor=none;top=0;left=0;bottom=0;right=0;pointerEvents=1;fontSize=13;" vertex="1" parent="FqJBwc_r8EiN9YZokY4C-3">
          <mxGeometry x="990" width="90" height="40" as="geometry">
            <mxRectangle width="90" height="40" as="alternateBounds" />
          </mxGeometry>
        </mxCell>
        <mxCell id="FqJBwc_r8EiN9YZokY4C-112" value="&lt;span style=&quot;color: rgb(0, 0, 0); font-family: Helvetica; font-size: 14px; font-style: normal; font-variant-ligatures: normal; font-variant-caps: normal; font-weight: 400; letter-spacing: normal; orphans: 2; text-align: center; text-indent: 0px; text-transform: none; widows: 2; word-spacing: 0px; -webkit-text-stroke-width: 0px; white-space: normal; background-color: rgb(251, 251, 251); text-decoration-thickness: initial; text-decoration-style: initial; text-decoration-color: initial; display: inline !important; float: none;&quot;&gt;DiscountType&lt;/span&gt;" style="shape=partialRectangle;html=1;whiteSpace=wrap;connectable=0;strokeColor=inherit;overflow=hidden;fillColor=none;top=0;left=0;bottom=0;right=0;pointerEvents=1;fontSize=13;" vertex="1" parent="FqJBwc_r8EiN9YZokY4C-3">
          <mxGeometry x="1080" width="130" height="40" as="geometry">
            <mxRectangle width="130" height="40" as="alternateBounds" />
          </mxGeometry>
        </mxCell>
        <mxCell id="6ZN-erU2oW7lj8vUWsyN-1" value="&lt;font style=&quot;font-size: 14px;&quot;&gt;Price&lt;/font&gt;" style="shape=partialRectangle;html=1;whiteSpace=wrap;connectable=0;strokeColor=inherit;overflow=hidden;fillColor=none;top=0;left=0;bottom=0;right=0;pointerEvents=1;fontSize=13;" vertex="1" parent="FqJBwc_r8EiN9YZokY4C-3">
          <mxGeometry x="1210" width="100" height="40" as="geometry">
            <mxRectangle width="100" height="40" as="alternateBounds" />
          </mxGeometry>
        </mxCell>
        <mxCell id="FqJBwc_r8EiN9YZokY4C-20" value="&lt;font style=&quot;font-size: 18px;&quot;&gt;&lt;u&gt;Client&lt;/u&gt;&lt;/font&gt;" style="text;html=1;align=center;verticalAlign=middle;resizable=0;points=[];autosize=1;strokeColor=none;fillColor=none;" vertex="1" parent="1">
          <mxGeometry x="-150" y="83" width="70" height="40" as="geometry" />
        </mxCell>
        <mxCell id="FqJBwc_r8EiN9YZokY4C-22" value="&lt;font style=&quot;font-size: 18px;&quot;&gt;&lt;u&gt;Zone&lt;/u&gt;&lt;/font&gt;" style="text;html=1;align=center;verticalAlign=middle;resizable=0;points=[];autosize=1;strokeColor=none;fillColor=none;" vertex="1" parent="1">
          <mxGeometry x="-145" y="250" width="60" height="40" as="geometry" />
        </mxCell>
        <mxCell id="FqJBwc_r8EiN9YZokY4C-23" value="&lt;font style=&quot;font-size: 18px;&quot;&gt;&lt;u&gt;Discount&lt;/u&gt;&lt;/font&gt;" style="text;html=1;align=center;verticalAlign=middle;resizable=0;points=[];autosize=1;strokeColor=none;fillColor=none;" vertex="1" parent="1">
          <mxGeometry x="-160" y="420" width="90" height="40" as="geometry" />
        </mxCell>
        <mxCell id="FqJBwc_r8EiN9YZokY4C-24" value="&lt;font style=&quot;font-size: 18px;&quot;&gt;&lt;u&gt;Metro Card&lt;/u&gt;&lt;/font&gt;" style="text;html=1;align=center;verticalAlign=middle;resizable=0;points=[];autosize=1;strokeColor=none;fillColor=none;" vertex="1" parent="1">
          <mxGeometry x="-170" y="579" width="110" height="40" as="geometry" />
        </mxCell>
        <mxCell id="FqJBwc_r8EiN9YZokY4C-25" value="" style="shape=table;startSize=0;container=1;collapsible=0;childLayout=tableLayout;fontSize=15;" vertex="1" parent="1">
          <mxGeometry x="-150" y="310" width="120" height="40" as="geometry" />
        </mxCell>
        <mxCell id="FqJBwc_r8EiN9YZokY4C-26" value="" style="shape=tableRow;horizontal=0;startSize=0;swimlaneHead=0;swimlaneBody=0;strokeColor=inherit;top=0;left=0;bottom=0;right=0;collapsible=0;dropTarget=0;fillColor=none;points=[[0,0.5],[1,0.5]];portConstraint=eastwest;" vertex="1" parent="FqJBwc_r8EiN9YZokY4C-25">
          <mxGeometry width="120" height="40" as="geometry" />
        </mxCell>
        <mxCell id="FqJBwc_r8EiN9YZokY4C-27" value="&lt;u&gt;City&lt;/u&gt;" style="shape=partialRectangle;html=1;whiteSpace=wrap;connectable=0;strokeColor=inherit;overflow=hidden;fillColor=none;top=0;left=0;bottom=0;right=0;pointerEvents=1;fontSize=16;" vertex="1" parent="FqJBwc_r8EiN9YZokY4C-26">
          <mxGeometry width="60" height="40" as="geometry">
            <mxRectangle width="60" height="40" as="alternateBounds" />
          </mxGeometry>
        </mxCell>
        <mxCell id="FqJBwc_r8EiN9YZokY4C-28" value="Zone" style="shape=partialRectangle;html=1;whiteSpace=wrap;connectable=0;strokeColor=inherit;overflow=hidden;fillColor=none;top=0;left=0;bottom=0;right=0;pointerEvents=1;fontSize=14;" vertex="1" parent="FqJBwc_r8EiN9YZokY4C-26">
          <mxGeometry x="60" width="60" height="40" as="geometry">
            <mxRectangle width="60" height="40" as="alternateBounds" />
          </mxGeometry>
        </mxCell>
        <mxCell id="FqJBwc_r8EiN9YZokY4C-31" value="" style="shape=table;startSize=0;container=1;collapsible=0;childLayout=tableLayout;fontSize=15;" vertex="1" parent="1">
          <mxGeometry x="-150" y="490" width="280" height="40" as="geometry" />
        </mxCell>
        <mxCell id="FqJBwc_r8EiN9YZokY4C-32" value="" style="shape=tableRow;horizontal=0;startSize=0;swimlaneHead=0;swimlaneBody=0;strokeColor=inherit;top=0;left=0;bottom=0;right=0;collapsible=0;dropTarget=0;fillColor=none;points=[[0,0.5],[1,0.5]];portConstraint=eastwest;" vertex="1" parent="FqJBwc_r8EiN9YZokY4C-31">
          <mxGeometry width="280" height="40" as="geometry" />
        </mxCell>
        <mxCell id="FqJBwc_r8EiN9YZokY4C-33" value="&lt;u&gt;DiscountType&lt;/u&gt;" style="shape=partialRectangle;html=1;whiteSpace=wrap;connectable=0;strokeColor=inherit;overflow=hidden;fillColor=none;top=0;left=0;bottom=0;right=0;pointerEvents=1;fontSize=16;" vertex="1" parent="FqJBwc_r8EiN9YZokY4C-32">
          <mxGeometry width="140" height="40" as="geometry">
            <mxRectangle width="140" height="40" as="alternateBounds" />
          </mxGeometry>
        </mxCell>
        <mxCell id="FqJBwc_r8EiN9YZokY4C-34" value="DiscountAmmount" style="shape=partialRectangle;html=1;whiteSpace=wrap;connectable=0;strokeColor=inherit;overflow=hidden;fillColor=none;top=0;left=0;bottom=0;right=0;pointerEvents=1;fontSize=14;" vertex="1" parent="FqJBwc_r8EiN9YZokY4C-32">
          <mxGeometry x="140" width="140" height="40" as="geometry">
            <mxRectangle width="140" height="40" as="alternateBounds" />
          </mxGeometry>
        </mxCell>
        <mxCell id="FqJBwc_r8EiN9YZokY4C-35" value="" style="shape=table;startSize=0;container=1;collapsible=0;childLayout=tableLayout;" vertex="1" parent="1">
          <mxGeometry x="-150" y="649" width="350" height="40" as="geometry" />
        </mxCell>
        <mxCell id="FqJBwc_r8EiN9YZokY4C-36" value="" style="shape=tableRow;horizontal=0;startSize=0;swimlaneHead=0;swimlaneBody=0;strokeColor=inherit;top=0;left=0;bottom=0;right=0;collapsible=0;dropTarget=0;fillColor=none;points=[[0,0.5],[1,0.5]];portConstraint=eastwest;" vertex="1" parent="FqJBwc_r8EiN9YZokY4C-35">
          <mxGeometry width="350" height="40" as="geometry" />
        </mxCell>
        <mxCell id="FqJBwc_r8EiN9YZokY4C-37" value="&lt;u&gt;&lt;font style=&quot;font-size: 17px;&quot;&gt;CarNum&lt;/font&gt;&lt;/u&gt;" style="shape=partialRectangle;html=1;whiteSpace=wrap;connectable=0;strokeColor=inherit;overflow=hidden;fillColor=none;top=0;left=0;bottom=0;right=0;pointerEvents=1;" vertex="1" parent="FqJBwc_r8EiN9YZokY4C-36">
          <mxGeometry width="95" height="40" as="geometry">
            <mxRectangle width="95" height="40" as="alternateBounds" />
          </mxGeometry>
        </mxCell>
        <mxCell id="FqJBwc_r8EiN9YZokY4C-38" value="CID" style="shape=partialRectangle;html=1;whiteSpace=wrap;connectable=0;strokeColor=inherit;overflow=hidden;fillColor=none;top=0;left=0;bottom=0;right=0;pointerEvents=1;fontSize=18;" vertex="1" parent="FqJBwc_r8EiN9YZokY4C-36">
          <mxGeometry x="95" width="65" height="40" as="geometry">
            <mxRectangle width="65" height="40" as="alternateBounds" />
          </mxGeometry>
        </mxCell>
        <mxCell id="FqJBwc_r8EiN9YZokY4C-39" value="is_Active" style="shape=partialRectangle;html=1;whiteSpace=wrap;connectable=0;strokeColor=inherit;overflow=hidden;fillColor=none;top=0;left=0;bottom=0;right=0;pointerEvents=1;fontSize=17;" vertex="1" parent="FqJBwc_r8EiN9YZokY4C-36">
          <mxGeometry x="160" width="80" height="40" as="geometry">
            <mxRectangle width="80" height="40" as="alternateBounds" />
          </mxGeometry>
        </mxCell>
        <mxCell id="FqJBwc_r8EiN9YZokY4C-40" value="&lt;span style=&quot;font-size: 16px;&quot;&gt;RechargeDate&lt;/span&gt;" style="shape=partialRectangle;html=1;whiteSpace=wrap;connectable=0;strokeColor=inherit;overflow=hidden;fillColor=none;top=0;left=0;bottom=0;right=0;pointerEvents=1;fontSize=17;" vertex="1" parent="FqJBwc_r8EiN9YZokY4C-36">
          <mxGeometry x="240" width="110" height="40" as="geometry">
            <mxRectangle width="110" height="40" as="alternateBounds" />
          </mxGeometry>
        </mxCell>
        <mxCell id="FqJBwc_r8EiN9YZokY4C-65" value="&lt;font style=&quot;font-size: 18px;&quot;&gt;&lt;u&gt;Base Pricing&lt;/u&gt;&lt;/font&gt;" style="text;html=1;align=center;verticalAlign=middle;resizable=0;points=[];autosize=1;strokeColor=none;fillColor=none;" vertex="1" parent="1">
          <mxGeometry x="-180" y="740" width="120" height="40" as="geometry" />
        </mxCell>
        <mxCell id="FqJBwc_r8EiN9YZokY4C-70" value="" style="endArrow=none;html=1;rounded=0;entryX=0.649;entryY=1.011;entryDx=0;entryDy=0;entryPerimeter=0;exitX=0.44;exitY=0.973;exitDx=0;exitDy=0;exitPerimeter=0;" edge="1" parent="1" source="FqJBwc_r8EiN9YZokY4C-22" target="FqJBwc_r8EiN9YZokY4C-3">
          <mxGeometry width="50" height="50" relative="1" as="geometry">
            <mxPoint x="370" y="320" as="sourcePoint" />
            <mxPoint x="420" y="270" as="targetPoint" />
            <Array as="points">
              <mxPoint x="700" y="290" />
            </Array>
          </mxGeometry>
        </mxCell>
        <mxCell id="FqJBwc_r8EiN9YZokY4C-74" value="" style="endArrow=classic;html=1;rounded=0;entryX=0.279;entryY=0.05;entryDx=0;entryDy=0;entryPerimeter=0;" edge="1" parent="1" target="FqJBwc_r8EiN9YZokY4C-26">
          <mxGeometry width="50" height="50" relative="1" as="geometry">
            <mxPoint x="-117" y="290" as="sourcePoint" />
            <mxPoint x="-70" y="240" as="targetPoint" />
          </mxGeometry>
        </mxCell>
        <mxCell id="FqJBwc_r8EiN9YZokY4C-75" value="" style="endArrow=none;html=1;rounded=0;entryX=0.533;entryY=1.031;entryDx=0;entryDy=0;entryPerimeter=0;" edge="1" parent="1">
          <mxGeometry width="50" height="50" relative="1" as="geometry">
            <mxPoint x="-80" y="470" as="sourcePoint" />
            <mxPoint x="995" y="180" as="targetPoint" />
            <Array as="points">
              <mxPoint x="995" y="470" />
            </Array>
          </mxGeometry>
        </mxCell>
        <mxCell id="FqJBwc_r8EiN9YZokY4C-76" value="" style="endArrow=classic;html=1;rounded=0;entryX=0.279;entryY=0.05;entryDx=0;entryDy=0;entryPerimeter=0;" edge="1" parent="1">
          <mxGeometry width="50" height="50" relative="1" as="geometry">
            <mxPoint x="-80" y="470" as="sourcePoint" />
            <mxPoint x="-80" y="492" as="targetPoint" />
          </mxGeometry>
        </mxCell>
        <mxCell id="FqJBwc_r8EiN9YZokY4C-77" value="" style="endArrow=none;html=1;rounded=0;exitX=0.367;exitY=-0.012;exitDx=0;exitDy=0;exitPerimeter=0;" edge="1" parent="1" source="FqJBwc_r8EiN9YZokY4C-36">
          <mxGeometry width="50" height="50" relative="1" as="geometry">
            <mxPoint x="-20" y="640" as="sourcePoint" />
            <mxPoint x="-21" y="570" as="targetPoint" />
          </mxGeometry>
        </mxCell>
        <mxCell id="FqJBwc_r8EiN9YZokY4C-78" value="" style="endArrow=none;html=1;rounded=0;" edge="1" parent="1">
          <mxGeometry width="50" height="50" relative="1" as="geometry">
            <mxPoint x="-200" y="570" as="sourcePoint" />
            <mxPoint x="-20" y="570" as="targetPoint" />
          </mxGeometry>
        </mxCell>
        <mxCell id="FqJBwc_r8EiN9YZokY4C-79" value="" style="endArrow=none;html=1;rounded=0;" edge="1" parent="1">
          <mxGeometry width="50" height="50" relative="1" as="geometry">
            <mxPoint x="-200" y="570" as="sourcePoint" />
            <mxPoint x="-200" y="210" as="targetPoint" />
          </mxGeometry>
        </mxCell>
        <mxCell id="FqJBwc_r8EiN9YZokY4C-80" value="" style="endArrow=none;html=1;rounded=0;" edge="1" parent="1">
          <mxGeometry width="50" height="50" relative="1" as="geometry">
            <mxPoint x="-200" y="210" as="sourcePoint" />
            <mxPoint x="-110" y="210" as="targetPoint" />
          </mxGeometry>
        </mxCell>
        <mxCell id="FqJBwc_r8EiN9YZokY4C-81" value="" style="endArrow=classic;html=1;rounded=0;entryX=0.031;entryY=1;entryDx=0;entryDy=0;entryPerimeter=0;" edge="1" parent="1" target="FqJBwc_r8EiN9YZokY4C-3">
          <mxGeometry width="50" height="50" relative="1" as="geometry">
            <mxPoint x="-110" y="210" as="sourcePoint" />
            <mxPoint x="-110" y="190" as="targetPoint" />
          </mxGeometry>
        </mxCell>
        <mxCell id="FqJBwc_r8EiN9YZokY4C-86" value="" style="endArrow=none;html=1;rounded=0;" edge="1" parent="1">
          <mxGeometry width="50" height="50" relative="1" as="geometry">
            <mxPoint x="550" y="790" as="sourcePoint" />
            <mxPoint x="550" y="181" as="targetPoint" />
          </mxGeometry>
        </mxCell>
        <mxCell id="FqJBwc_r8EiN9YZokY4C-87" value="" style="endArrow=none;html=1;rounded=0;" edge="1" parent="1">
          <mxGeometry width="50" height="50" relative="1" as="geometry">
            <mxPoint x="-140" y="790" as="sourcePoint" />
            <mxPoint x="550" y="790" as="targetPoint" />
          </mxGeometry>
        </mxCell>
        <mxCell id="FqJBwc_r8EiN9YZokY4C-88" value="" style="endArrow=classic;html=1;rounded=0;" edge="1" parent="1">
          <mxGeometry width="50" height="50" relative="1" as="geometry">
            <mxPoint x="-140" y="790" as="sourcePoint" />
            <mxPoint x="-140" y="814" as="targetPoint" />
          </mxGeometry>
        </mxCell>
        <mxCell id="FqJBwc_r8EiN9YZokY4C-89" value="FK" style="text;html=1;align=center;verticalAlign=middle;resizable=0;points=[];autosize=1;strokeColor=none;fillColor=none;" vertex="1" parent="1">
          <mxGeometry x="980" y="110" width="40" height="30" as="geometry" />
        </mxCell>
        <mxCell id="FqJBwc_r8EiN9YZokY4C-91" value="FK" style="text;html=1;align=center;verticalAlign=middle;resizable=0;points=[];autosize=1;strokeColor=none;fillColor=none;" vertex="1" parent="1">
          <mxGeometry x="-40" y="689" width="40" height="30" as="geometry" />
        </mxCell>
        <mxCell id="FqJBwc_r8EiN9YZokY4C-92" value="FK" style="text;html=1;align=center;verticalAlign=middle;resizable=0;points=[];autosize=1;strokeColor=none;fillColor=none;" vertex="1" parent="1">
          <mxGeometry x="530" y="110" width="40" height="30" as="geometry" />
        </mxCell>
        <mxCell id="FqJBwc_r8EiN9YZokY4C-96" value="1" style="text;html=1;align=center;verticalAlign=middle;resizable=0;points=[];autosize=1;strokeColor=none;fillColor=none;" vertex="1" parent="1">
          <mxGeometry x="1025" y="358" width="30" height="30" as="geometry" />
        </mxCell>
        <mxCell id="FqJBwc_r8EiN9YZokY4C-98" value="" style="shape=table;startSize=0;container=1;collapsible=0;childLayout=tableLayout;fontSize=15;" vertex="1" parent="1">
          <mxGeometry x="-160" y="940" width="170" height="40" as="geometry" />
        </mxCell>
        <mxCell id="FqJBwc_r8EiN9YZokY4C-99" value="" style="shape=tableRow;horizontal=0;startSize=0;swimlaneHead=0;swimlaneBody=0;strokeColor=inherit;top=0;left=0;bottom=0;right=0;collapsible=0;dropTarget=0;fillColor=none;points=[[0,0.5],[1,0.5]];portConstraint=eastwest;" vertex="1" parent="FqJBwc_r8EiN9YZokY4C-98">
          <mxGeometry width="170" height="40" as="geometry" />
        </mxCell>
        <mxCell id="FqJBwc_r8EiN9YZokY4C-100" value="&lt;u&gt;CarNum&lt;/u&gt;" style="shape=partialRectangle;html=1;whiteSpace=wrap;connectable=0;strokeColor=inherit;overflow=hidden;fillColor=none;top=0;left=0;bottom=0;right=0;pointerEvents=1;fontSize=16;" vertex="1" parent="FqJBwc_r8EiN9YZokY4C-99">
          <mxGeometry width="80" height="40" as="geometry">
            <mxRectangle width="80" height="40" as="alternateBounds" />
          </mxGeometry>
        </mxCell>
        <mxCell id="FqJBwc_r8EiN9YZokY4C-101" value="Balance" style="shape=partialRectangle;html=1;whiteSpace=wrap;connectable=0;strokeColor=inherit;overflow=hidden;fillColor=none;top=0;left=0;bottom=0;right=0;pointerEvents=1;fontSize=14;" vertex="1" parent="FqJBwc_r8EiN9YZokY4C-99">
          <mxGeometry x="80" width="90" height="40" as="geometry">
            <mxRectangle width="90" height="40" as="alternateBounds" />
          </mxGeometry>
        </mxCell>
        <mxCell id="FqJBwc_r8EiN9YZokY4C-102" value="&lt;font style=&quot;font-size: 18px;&quot;&gt;&lt;u&gt;MultiEntryCard&lt;/u&gt;&lt;/font&gt;" style="text;html=1;align=center;verticalAlign=middle;resizable=0;points=[];autosize=1;strokeColor=none;fillColor=none;" vertex="1" parent="1">
          <mxGeometry x="-180" y="890" width="140" height="40" as="geometry" />
        </mxCell>
        <mxCell id="FqJBwc_r8EiN9YZokY4C-111" value="FK" style="text;html=1;align=center;verticalAlign=middle;resizable=0;points=[];autosize=1;strokeColor=none;fillColor=none;" vertex="1" parent="1">
          <mxGeometry x="680" y="110" width="40" height="30" as="geometry" />
        </mxCell>
        <mxCell id="IxVC7WKnIgZyCeWIgCB7-1" value="" style="shape=table;startSize=0;container=1;collapsible=0;childLayout=tableLayout;" vertex="1" parent="1">
          <mxGeometry x="-150" y="820" width="576" height="40" as="geometry" />
        </mxCell>
        <mxCell id="IxVC7WKnIgZyCeWIgCB7-2" value="" style="shape=tableRow;horizontal=0;startSize=0;swimlaneHead=0;swimlaneBody=0;strokeColor=inherit;top=0;left=0;bottom=0;right=0;collapsible=0;dropTarget=0;fillColor=none;points=[[0,0.5],[1,0.5]];portConstraint=eastwest;" vertex="1" parent="IxVC7WKnIgZyCeWIgCB7-1">
          <mxGeometry width="576" height="40" as="geometry" />
        </mxCell>
        <mxCell id="IxVC7WKnIgZyCeWIgCB7-3" value="&lt;u&gt;AgeGroup&lt;/u&gt;" style="shape=partialRectangle;html=1;whiteSpace=wrap;connectable=0;strokeColor=inherit;overflow=hidden;fillColor=none;top=0;left=0;bottom=0;right=0;pointerEvents=1;" vertex="1" parent="IxVC7WKnIgZyCeWIgCB7-2">
          <mxGeometry width="64" height="40" as="geometry">
            <mxRectangle width="64" height="40" as="alternateBounds" />
          </mxGeometry>
        </mxCell>
        <mxCell id="IxVC7WKnIgZyCeWIgCB7-4" value="A" style="shape=partialRectangle;html=1;whiteSpace=wrap;connectable=0;strokeColor=inherit;overflow=hidden;fillColor=none;top=0;left=0;bottom=0;right=0;pointerEvents=1;" vertex="1" parent="IxVC7WKnIgZyCeWIgCB7-2">
          <mxGeometry x="64" width="64" height="40" as="geometry">
            <mxRectangle width="64" height="40" as="alternateBounds" />
          </mxGeometry>
        </mxCell>
        <mxCell id="IxVC7WKnIgZyCeWIgCB7-5" value="B1" style="shape=partialRectangle;html=1;whiteSpace=wrap;connectable=0;strokeColor=inherit;overflow=hidden;fillColor=none;top=0;left=0;bottom=0;right=0;pointerEvents=1;" vertex="1" parent="IxVC7WKnIgZyCeWIgCB7-2">
          <mxGeometry x="128" width="64" height="40" as="geometry">
            <mxRectangle width="64" height="40" as="alternateBounds" />
          </mxGeometry>
        </mxCell>
        <mxCell id="IxVC7WKnIgZyCeWIgCB7-6" value="B2" style="shape=partialRectangle;html=1;whiteSpace=wrap;connectable=0;strokeColor=inherit;overflow=hidden;fillColor=none;top=0;left=0;bottom=0;right=0;pointerEvents=1;" vertex="1" parent="IxVC7WKnIgZyCeWIgCB7-2">
          <mxGeometry x="192" width="64" height="40" as="geometry">
            <mxRectangle width="64" height="40" as="alternateBounds" />
          </mxGeometry>
        </mxCell>
        <mxCell id="IxVC7WKnIgZyCeWIgCB7-7" value="B3" style="shape=partialRectangle;html=1;whiteSpace=wrap;connectable=0;strokeColor=inherit;overflow=hidden;fillColor=none;top=0;left=0;bottom=0;right=0;pointerEvents=1;" vertex="1" parent="IxVC7WKnIgZyCeWIgCB7-2">
          <mxGeometry x="256" width="64" height="40" as="geometry">
            <mxRectangle width="64" height="40" as="alternateBounds" />
          </mxGeometry>
        </mxCell>
        <mxCell id="IxVC7WKnIgZyCeWIgCB7-8" value="C1" style="shape=partialRectangle;html=1;whiteSpace=wrap;connectable=0;strokeColor=inherit;overflow=hidden;fillColor=none;top=0;left=0;bottom=0;right=0;pointerEvents=1;" vertex="1" parent="IxVC7WKnIgZyCeWIgCB7-2">
          <mxGeometry x="320" width="55" height="40" as="geometry">
            <mxRectangle width="55" height="40" as="alternateBounds" />
          </mxGeometry>
        </mxCell>
        <mxCell id="IxVC7WKnIgZyCeWIgCB7-9" value="C2" style="shape=partialRectangle;html=1;whiteSpace=wrap;connectable=0;strokeColor=inherit;overflow=hidden;fillColor=none;top=0;left=0;bottom=0;right=0;pointerEvents=1;" vertex="1" parent="IxVC7WKnIgZyCeWIgCB7-2">
          <mxGeometry x="375" width="73" height="40" as="geometry">
            <mxRectangle width="73" height="40" as="alternateBounds" />
          </mxGeometry>
        </mxCell>
        <mxCell id="IxVC7WKnIgZyCeWIgCB7-10" value="E1" style="shape=partialRectangle;html=1;whiteSpace=wrap;connectable=0;strokeColor=inherit;overflow=hidden;fillColor=none;top=0;left=0;bottom=0;right=0;pointerEvents=1;" vertex="1" parent="IxVC7WKnIgZyCeWIgCB7-2">
          <mxGeometry x="448" width="64" height="40" as="geometry">
            <mxRectangle width="64" height="40" as="alternateBounds" />
          </mxGeometry>
        </mxCell>
        <mxCell id="IxVC7WKnIgZyCeWIgCB7-11" value="E2" style="shape=partialRectangle;html=1;whiteSpace=wrap;connectable=0;strokeColor=inherit;overflow=hidden;fillColor=none;top=0;left=0;bottom=0;right=0;pointerEvents=1;" vertex="1" parent="IxVC7WKnIgZyCeWIgCB7-2">
          <mxGeometry x="512" width="64" height="40" as="geometry">
            <mxRectangle width="64" height="40" as="alternateBounds" />
          </mxGeometry>
        </mxCell>
      </root>
    </mxGraphModel>
  </diagram>
</mxfile>
